<svg xmlns="http://www.w3.org/2000/svg" viewBox="0 0 350 172" width="350" height="172"><rect x="115" y="10" width="120" height="92" rx="10" fill="none" stroke="#14161c" stroke-width="3"/><line x1="115" y1="34" x2="235" y2="34" stroke="#14161c" stroke-width="3"/><path d="M128.364 24.514 127.396 25.196Q127.649 25.724 128.08350000000002 26.175Q128.518 26.626 129.09550000000002 26.8955Q129.673 27.165 130.344 27.165Q130.839 27.165 131.2955 27.005499999999998Q131.752 26.846 132.115 26.5545Q132.478 26.263 132.6925 25.834000000000003Q132.907 25.405 132.907 24.866Q132.907 24.36 132.731 23.9805Q132.555 23.601 132.2745 23.326Q131.994 23.051000000000002 131.64749999999998 22.864Q131.301 22.677 130.949 22.556Q130.333 22.336 129.94799999999998 22.127Q129.563 21.918 129.3815 21.6815Q129.2 21.445 129.2 21.148Q129.2 20.818 129.45299999999997 20.570500000000003Q129.706 20.323 130.245 20.323Q130.63 20.323 130.92149999999998 20.4715Q131.213 20.62 131.433 20.8675Q131.653 21.115000000000002 131.807 21.401L132.852 20.807000000000002Q132.665 20.4 132.313 20.026Q131.961 19.652 131.455 19.4045Q130.949 19.157 130.267 19.157Q129.574 19.157 129.0295 19.421Q128.485 19.685000000000002 128.166 20.152500000000003Q127.847 20.62 127.847 21.236Q127.847 21.775 128.05599999999998 22.1545Q128.265 22.534 128.584 22.7925Q128.903 23.051000000000002 129.255 23.2215Q129.607 23.392 129.893 23.491Q130.377 23.667 130.751 23.8485Q131.125 24.03 131.32850000000002 24.2885Q131.532 24.547 131.532 24.965Q131.532 25.427 131.202 25.713Q130.872 25.999 130.344 25.999Q129.915 25.999 129.5575 25.811999999999998Q129.2 25.625 128.9085 25.295Q128.617 24.965 128.364 24.514ZM141.583 25.02 142.463 27.0H143.937L140.164 18.871000000000002L136.402 27.0H137.865L138.745 25.02ZM140.164 21.478 141.22 23.92H139.119ZM147.047 20.499000000000002H149.082V27.0H150.38V20.499000000000002H152.415V19.3H147.047Z" fill="#14161c"/><path d="M196.166 24.514 195.19799999999998 25.196Q195.451 25.724 195.88549999999998 26.175Q196.32 26.626 196.89749999999998 26.8955Q197.475 27.165 198.146 27.165Q198.641 27.165 199.0975 27.005499999999998Q199.554 26.846 199.917 26.5545Q200.28 26.263 200.49450000000002 25.834000000000003Q200.709 25.405 200.709 24.866Q200.709 24.36 200.53300000000002 23.9805Q200.357 23.601 200.0765 23.326Q199.796 23.051000000000002 199.4495 22.864Q199.10299999999998 22.677 198.751 22.556Q198.135 22.336 197.75 22.127Q197.36499999999998 21.918 197.18349999999998 21.6815Q197.00199999999998 21.445 197.00199999999998 21.148Q197.00199999999998 20.818 197.255 20.570500000000003Q197.50799999999998 20.323 198.047 20.323Q198.432 20.323 198.7235 20.4715Q199.015 20.62 199.23499999999999 20.8675Q199.45499999999998 21.115000000000002 199.60899999999998 21.401L200.654 20.807000000000002Q200.46699999999998 20.4 200.115 20.026Q199.763 19.652 199.257 19.4045Q198.751 19.157 198.069 19.157Q197.376 19.157 196.8315 19.421Q196.287 19.685000000000002 195.96800000000002 20.152500000000003Q195.649 20.62 195.649 21.236Q195.649 21.775 195.858 22.1545Q196.06699999999998 22.534 196.38599999999997 22.7925Q196.70499999999998 23.051000000000002 197.057 23.2215Q197.409 23.392 197.695 23.491Q198.179 23.667 198.553 23.8485Q198.927 24.03 199.13049999999998 24.2885Q199.334 24.547 199.334 24.965Q199.334 25.427 199.004 25.713Q198.67399999999998 25.999 198.146 25.999Q197.71699999999998 25.999 197.35949999999997 25.811999999999998Q197.00199999999998 25.625 196.71049999999997 25.295Q196.41899999999998 24.965 196.166 24.514ZM204.974 19.3V24.47Q204.974 25.108 205.1775 25.6085Q205.381 26.109 205.755 26.461Q206.129 26.813 206.646 27.0Q207.16299999999998 27.187 207.779 27.187Q208.39499999999998 27.187 208.91199999999998 27.0Q209.429 26.813 209.80849999999998 26.461Q210.188 26.109 210.3915 25.6085Q210.595 25.108 210.595 24.47V19.3H209.286V24.415Q209.286 25.119 208.9065 25.558999999999997Q208.527 25.999 207.779 25.999Q207.042 25.999 206.65699999999998 25.558999999999997Q206.272 25.119 206.272 24.415V19.3ZM220.86599999999999 19.3V24.47L215.245 18.915V27.0H216.521V21.83L222.142 27.385V19.3Z" fill="#14161c"/><path d="M91.76953125 78.26953125 91.16015625 75.83203125Q91.16015625 73.75 92.607421875 72.556640625Q94.0546875 71.36328125 96.23828125 71.36328125Q100.50390625 71.36328125 100.50390625 76.796875Q100.50390625 80.70703125 96.64453125 87.587890625Q92.78515625 94.46875 87.529296875 100.892578125Q82.2734375 107.31640625 76.3828125 112.064453125Q70.4921875 116.8125 67.318359375 116.8125Q64.14453125 116.8125 62.82421875 115.0859375Q61.50390625 113.359375 61.50390625 111.759765625Q61.50390625 110.16015625 61.65625 108.73828125Q62.21484375 103.76171875 64.3984375 99.2421875Q58.96484375 106.3515625 52.71875 112.013671875Q46.47265625 117.67578125 42.2578125 117.67578125Q40.2265625 117.67578125 39.0078125 116.45703125Q37.7890625 115.23828125 37.7890625 112.318359375Q37.7890625 109.3984375 41.29296875 101.349609375Q44.796875 93.30078125 47.99609375 88.42578125Q46.828125 89.13671875 45.939453125 89.13671875Q45.05078125 89.13671875 44.009765625 88.146484375Q42.96875 87.15625 42.96875 86.59765625Q42.96875 86.0390625 43.73046875 84.97265625Q44.4921875 83.90625 49.5703125 79.716796875Q54.6484375 75.52734375 56.52734375 75.52734375Q58.40625 75.52734375 60.107421875 76.23828125Q61.80859375 76.94921875 61.80859375 78.193359375Q61.80859375 79.4375 54.75 92.69140625Q47.69140625 105.9453125 47.69140625 107.0625Q47.69140625 107.21484375 47.79296875 107.21484375Q48.859375 107.21484375 58.431640625 96.34765625Q68.00390625 85.48046875 73.48828125 78.47265625Q74.25 77.203125 75.7734375 77.203125L76.23046875 77.25390625L79.0234375 76.6953125Q79.68359375 76.6953125 80.318359375 77.203125Q80.953125 77.7109375 80.953125 78.1171875Q80.953125 78.5234375 79.150390625 81.7734375Q77.34765625 85.0234375 73.28515625 94.0625Q69.22265625 103.1015625 69.22265625 106.7578125Q69.22265625 107.671875 69.8828125 107.671875Q71.8125 107.671875 77.931640625 100.689453125Q84.05078125 93.70703125 87.91015625 87.30859375Q91.76953125 80.91015625 91.76953125 78.26953125ZM131.53125 78.015625Q131.53125 81.3671875 128.814453125 83.90625Q126.09765625 86.4453125 122.64453125 86.4453125Q121.52734375 86.4453125 121.171875 85.912109375Q120.81640625 85.37890625 120.81640625 84.515625Q120.81640625 83.65234375 121.01953125 82.83984375Q119.19140625 83.44921875 116.95703125 84.71875Q114.72265625 85.98828125 111.47265625 88.4765625Q108.22265625 90.96484375 108.22265625 92.18359375Q108.22265625 92.58984375 109.416015625 92.58984375Q110.609375 92.58984375 113.09765625 91.751953125Q115.5859375 90.9140625 116.576171875 90.9140625Q117.56640625 90.9140625 117.87109375 91.015625Q118.53125 91.37109375 119.29296875 92.564453125Q120.0546875 93.7578125 120.0546875 94.443359375Q120.0546875 95.12890625 118.734375 96.24609375Q117.4140625 97.36328125 115.73828125 97.947265625Q114.0625 98.53125 113.50390625 98.8359375Q102.7890625 104.828125 102.7890625 107.0625Q102.7890625 111.0234375 109.54296875 111.0234375Q113.859375 111.0234375 118.2265625 108.28125Q121.93359375 105.9453125 124.904296875 103.533203125Q127.875 101.12109375 128.662109375 100.5625Q129.44921875 100.00390625 129.85546875 100.00390625Q131.17578125 100.00390625 131.17578125 102.94921875Q131.17578125 105.89453125 130.8203125 106.833984375Q130.46484375 107.7734375 128.7890625 109.14453125Q117.921875 117.98046875 108.22265625 117.98046875Q103.04296875 117.98046875 99.9453125 116.55859375Q94.2578125 113.96875 94.2578125 108.63671875Q94.2578125 101.62890625 103.95703125 98.0234375Q102.02734375 97.16015625 101.46875 95.814453125Q100.91015625 94.46875 100.91015625 91.498046875Q100.91015625 88.52734375 103.677734375 85.201171875Q106.4453125 81.875 110.45703125 79.7421875Q119.39453125 74.91796875 126.40234375 74.91796875Q128.078125 74.91796875 129.8046875 75.73046875Q131.53125 76.54296875 131.53125 78.015625ZM164.5390625 78.015625Q164.5390625 81.3671875 161.822265625 83.90625Q159.10546875 86.4453125 155.65234375 86.4453125Q154.53515625 86.4453125 154.1796875 85.912109375Q153.82421875 85.37890625 153.82421875 84.515625Q153.82421875 83.65234375 154.02734375 82.83984375Q152.19921875 83.44921875 149.96484375 84.71875Q147.73046875 85.98828125 144.48046875 88.4765625Q141.23046875 90.96484375 141.23046875 92.18359375Q141.23046875 92.58984375 142.423828125 92.58984375Q143.6171875 92.58984375 146.10546875 91.751953125Q148.59375 90.9140625 149.583984375 90.9140625Q150.57421875 90.9140625 150.87890625 91.015625Q151.5390625 91.37109375 152.30078125 92.564453125Q153.0625 93.7578125 153.0625 94.443359375Q153.0625 95.12890625 151.7421875 96.24609375Q150.421875 97.36328125 148.74609375 97.947265625Q147.0703125 98.53125 146.51171875 98.8359375Q135.796875 104.828125 135.796875 107.0625Q135.796875 111.0234375 142.55078125 111.0234375Q146.8671875 111.0234375 151.234375 108.28125Q154.94140625 105.9453125 157.912109375 103.533203125Q160.8828125 101.12109375 161.669921875 100.5625Q162.45703125 100.00390625 162.86328125 100.00390625Q164.18359375 100.00390625 164.18359375 102.94921875Q164.18359375 105.89453125 163.828125 106.833984375Q163.47265625 107.7734375 161.796875 109.14453125Q150.9296875 117.98046875 141.23046875 117.98046875Q136.05078125 117.98046875 132.953125 116.55859375Q127.265625 113.96875 127.265625 108.63671875Q127.265625 101.62890625 136.96484375 98.0234375Q135.03515625 97.16015625 134.4765625 95.814453125Q133.91796875 94.46875 133.91796875 91.498046875Q133.91796875 88.52734375 136.685546875 85.201171875Q139.453125 81.875 143.46484375 79.7421875Q152.40234375 74.91796875 159.41015625 74.91796875Q161.0859375 74.91796875 162.8125 75.73046875Q164.5390625 76.54296875 164.5390625 78.015625ZM163.421875 117.21875 160.171875 116.5078125Q158.69921875 116.35546875 157.734375 114.62890625Q157.48046875 114.171875 157.404296875 114.0703125Q157.328125 113.96875 157.328125 113.81640625Q157.328125 113.6640625 157.4296875 113.384765625Q157.53125 113.10546875 157.734375 112.623046875Q157.9375 112.140625 158.08984375 111.6328125Q159.15625 108.02734375 175.9140625 77.7109375Q192.671875 47.39453125 193.458984375 46.455078125Q194.24609375 45.515625 194.626953125 45.083984375Q195.0078125 44.65234375 195.490234375 44.34765625Q195.97265625 44.04296875 196.201171875 43.94140625Q196.4296875 43.83984375 197.115234375 43.611328125Q197.80078125 43.3828125 198.537109375 43.12890625Q199.2734375 42.875 200.0859375 42.443359375Q200.8984375 42.01171875 201.203125 41.833984375Q201.5078125 41.65625 201.990234375 41.65625Q202.47265625 41.65625 202.904296875 42.11328125Q203.3359375 42.5703125 203.3359375 43.28125V43.63671875Q203.08203125 44.6015625 190.107421875 67.70703125Q177.1328125 90.8125 175.96484375 92.99609375Q179.92578125 91.421875 187.64453125 85.2265625Q195.36328125 79.03125 195.439453125 77.0Q195.515625 74.96875 196.8359375 74.0546875Q198.15625 73.140625 199.705078125 73.140625Q201.25390625 73.140625 202.345703125 74.181640625Q203.4375 75.22265625 203.38671875 77.583984375Q203.3359375 79.9453125 200.74609375 83.576171875Q198.15625 87.20703125 194.55078125 90.3046875Q186.78125 96.90625 181.6015625 99.0390625Q185.71484375 110.16015625 191.046875 110.16015625Q193.94140625 109.75390625 198.15625 105.4375Q199.73046875 103.86328125 201.203125 102.263671875Q202.67578125 100.6640625 203.005859375 100.359375Q203.3359375 100.0546875 203.9453125 100.0546875Q204.91015625 100.0546875 205.11328125 101.52734375Q205.31640625 103.0 205.31640625 104.57421875Q205.31640625 106.1484375 205.01171875 106.7578125Q203.5390625 109.6015625 198.5625 113.689453125Q193.5859375 117.77734375 189.1171875 117.77734375Q185.91796875 117.77734375 184.0390625 116.55859375Q182.16015625 115.33984375 181.09375 114.52734375Q180.02734375 113.71484375 178.91015625 112.318359375Q177.79296875 110.921875 177.056640625 110.0078125Q176.3203125 109.09375 175.380859375 107.46875Q174.44140625 105.84375 174.03515625 105.158203125Q173.62890625 104.47265625 172.841796875 102.923828125Q172.0546875 101.375 171.953125 101.22265625Q171.0390625 103.1015625 169.921875 105.28515625Q168.8046875 107.46875 167.890625 109.34765625Q166.9765625 111.2265625 166.21484375 112.775390625Q165.453125 114.32421875 164.970703125 115.33984375Q164.48828125 116.35546875 164.4375 116.40625Q164.08203125 117.21875 163.421875 117.21875ZM235.78515625 78.015625Q235.78515625 81.3671875 233.068359375 83.90625Q230.3515625 86.4453125 226.8984375 86.4453125Q225.78125 86.4453125 225.42578125 85.912109375Q225.0703125 85.37890625 225.0703125 84.515625Q225.0703125 83.65234375 225.2734375 82.83984375Q223.4453125 83.44921875 221.2109375 84.71875Q218.9765625 85.98828125 215.7265625 88.4765625Q212.4765625 90.96484375 212.4765625 92.18359375Q212.4765625 92.58984375 213.669921875 92.58984375Q214.86328125 92.58984375 217.3515625 91.751953125Q219.83984375 90.9140625 220.830078125 90.9140625Q221.8203125 90.9140625 222.125 91.015625Q222.78515625 91.37109375 223.546875 92.564453125Q224.30859375 93.7578125 224.30859375 94.443359375Q224.30859375 95.12890625 222.98828125 96.24609375Q221.66796875 97.36328125 219.9921875 97.947265625Q218.31640625 98.53125 217.7578125 98.8359375Q207.04296875 104.828125 207.04296875 107.0625Q207.04296875 111.0234375 213.796875 111.0234375Q218.11328125 111.0234375 222.48046875 108.28125Q226.1875 105.9453125 229.158203125 103.533203125Q232.12890625 101.12109375 232.916015625 100.5625Q233.703125 100.00390625 234.109375 100.00390625Q235.4296875 100.00390625 235.4296875 102.94921875Q235.4296875 105.89453125 235.07421875 106.833984375Q234.71875 107.7734375 233.04296875 109.14453125Q222.17578125 117.98046875 212.4765625 117.98046875Q207.296875 117.98046875 204.19921875 116.55859375Q198.51171875 113.96875 198.51171875 108.63671875Q198.51171875 101.62890625 208.2109375 98.0234375Q206.28125 97.16015625 205.72265625 95.814453125Q205.1640625 94.46875 205.1640625 91.498046875Q205.1640625 88.52734375 207.931640625 85.201171875Q210.69921875 81.875 214.7109375 79.7421875Q223.6484375 74.91796875 230.65625 74.91796875Q232.33203125 74.91796875 234.05859375 75.73046875Q235.78515625 76.54296875 235.78515625 78.015625ZM260.36328125 108.1796875Q260.36328125 110.4140625 263.41015625 110.4140625Q265.03515625 110.4140625 267.498046875 108.7890625Q269.9609375 107.1640625 271.94140625 105.234375Q277.22265625 100.00390625 277.93359375 100.00390625Q279.25390625 100.00390625 279.25390625 103.8125Q279.25390625 107.62109375 276.8671875 109.04296875Q269.60546875 115.59375 265.64453125 117.015625Q263.41015625 117.77734375 260.71875 117.7265625Q258.02734375 117.67578125 255.38671875 115.390625Q252.74609375 113.10546875 252.74609375 109.830078125Q252.74609375 106.5546875 254.47265625 102.390625Q256.19921875 98.2265625 258.001953125 95.255859375Q259.8046875 92.28515625 262.4453125 88.349609375Q265.0859375 84.4140625 265.23828125 83.44921875L265.13671875 83.34765625Q263.4609375 83.5 256.833984375 89.94921875Q250.20703125 96.3984375 245.890625 101.171875Q241.57421875 105.9453125 235.58203125 113.91796875Q233.90625 116.1015625 232.83984375 116.1015625Q231.7734375 116.1015625 229.970703125 115.416015625Q228.16796875 114.73046875 227.76171875 114.42578125Q227.35546875 114.12109375 227.35546875 113.51171875Q227.35546875 112.90234375 227.7109375 112.013671875Q228.06640625 111.125 228.396484375 110.541015625Q228.7265625 109.95703125 229.48828125 108.73828125Q230.25 107.51953125 232.509765625 103.583984375Q234.76953125 99.6484375 239.44140625 91.828125Q244.11328125 84.0078125 245.02734375 82.3828125Q246.95703125 79.03125 248.17578125 77.5078125Q250.4609375 74.61328125 255.89453125 74.61328125Q257.11328125 74.61328125 257.11328125 76.13671875Q257.11328125 78.5234375 252.6953125 85.125L250.5625 88.32421875Q259.34765625 78.57421875 265.390625 75.984375Q268.3359375 74.71484375 270.697265625 74.71484375Q273.05859375 74.71484375 274.455078125 75.984375Q275.8515625 77.25390625 275.8515625 78.802734375Q275.8515625 80.3515625 274.78515625 82.509765625Q273.71875 84.66796875 272.626953125 86.369140625Q271.53515625 88.0703125 269.7578125 90.66015625Q267.98046875 93.25 267.828125 93.478515625Q267.67578125 93.70703125 267.041015625 94.697265625Q266.40625 95.6875 266.1015625 96.14453125Q265.796875 96.6015625 265.0859375 97.744140625Q264.375 98.88671875 263.943359375 99.6484375Q263.51171875 100.41015625 262.876953125 101.52734375Q262.2421875 102.64453125 261.861328125 103.45703125Q261.48046875 104.26953125 261.07421875 105.234375Q260.36328125 107.01171875 260.36328125 108.1796875ZM329.2734375 60.4453125Q317.74609375 79.18359375 311.1953125 92.1328125Q304.64453125 105.08203125 304.64453125 107.7734375V108.1796875Q304.64453125 110.26171875 306.16796875 110.26171875Q307.69140625 110.26171875 309.849609375 108.83984375Q312.0078125 107.41796875 313.6328125 105.79296875Q315.2578125 104.16796875 316.908203125 102.416015625Q318.55859375 100.6640625 318.9140625 100.359375Q319.26953125 100.0546875 319.828125 100.0546875Q320.69140625 100.0546875 320.9453125 101.146484375Q321.19921875 102.23828125 321.19921875 104.193359375Q321.19921875 106.1484375 320.89453125 106.7578125Q319.421875 109.6015625 314.419921875 113.689453125Q309.41796875 117.77734375 304.94921875 117.77734375Q297.33203125 117.77734375 297.33203125 111.328125Q297.33203125 107.31640625 300.37890625 100.81640625Q296.265625 106.1484375 292.0 109.90625Q284.078125 116.8125 278.23828125 116.8125Q274.98828125 116.8125 273.439453125 114.52734375Q271.890625 112.2421875 271.890625 107.951171875Q271.890625 103.66015625 275.2421875 97.66796875Q278.59375 91.67578125 283.595703125 86.876953125Q288.59765625 82.078125 294.69140625 78.853515625Q300.78515625 75.62890625 305.9140625 75.62890625Q307.5390625 75.62890625 309.72265625 77.609375Q311.1953125 75.2734375 315.15625 68.265625Q327.59765625 47.29296875 331.609375 42.671875Q333.7421875 39.87890625 338.26171875 39.87890625Q339.2265625 39.87890625 339.78515625 40.48828125Q340.34375 41.09765625 340.34375 41.732421875Q340.34375 42.3671875 339.353515625 44.068359375Q338.36328125 45.76953125 334.80859375 51.482421875Q331.25390625 57.1953125 329.2734375 60.4453125ZM306.625 82.3828125Q299.3125 84.0078125 293.015625 89.1875Q286.71875 94.3671875 283.5703125 100.029296875Q280.421875 105.69140625 280.421875 107.3671875Q280.421875 109.04296875 281.1328125 109.04296875Q284.1796875 109.04296875 296.21484375 95.43359375Q302.20703125 88.73046875 306.625 82.3828125Z" fill="#7a1f3d" stroke="#ffffff" stroke-width="12" stroke-linejoin="round"/><path d="M91.76953125 78.26953125 91.16015625 75.83203125Q91.16015625 73.75 92.607421875 72.556640625Q94.0546875 71.36328125 96.23828125 71.36328125Q100.50390625 71.36328125 100.50390625 76.796875Q100.50390625 80.70703125 96.64453125 87.587890625Q92.78515625 94.46875 87.529296875 100.892578125Q82.2734375 107.31640625 76.3828125 112.064453125Q70.4921875 116.8125 67.318359375 116.8125Q64.14453125 116.8125 62.82421875 115.0859375Q61.50390625 113.359375 61.50390625 111.759765625Q61.50390625 110.16015625 61.65625 108.73828125Q62.21484375 103.76171875 64.3984375 99.2421875Q58.96484375 106.3515625 52.71875 112.013671875Q46.47265625 117.67578125 42.2578125 117.67578125Q40.2265625 117.67578125 39.0078125 116.45703125Q37.7890625 115.23828125 37.7890625 112.318359375Q37.7890625 109.3984375 41.29296875 101.349609375Q44.796875 93.30078125 47.99609375 88.42578125Q46.828125 89.13671875 45.939453125 89.13671875Q45.05078125 89.13671875 44.009765625 88.146484375Q42.96875 87.15625 42.96875 86.59765625Q42.96875 86.0390625 43.73046875 84.97265625Q44.4921875 83.90625 49.5703125 79.716796875Q54.6484375 75.52734375 56.52734375 75.52734375Q58.40625 75.52734375 60.107421875 76.23828125Q61.80859375 76.94921875 61.80859375 78.193359375Q61.80859375 79.4375 54.75 92.69140625Q47.69140625 105.9453125 47.69140625 107.0625Q47.69140625 107.21484375 47.79296875 107.21484375Q48.859375 107.21484375 58.431640625 96.34765625Q68.00390625 85.48046875 73.48828125 78.47265625Q74.25 77.203125 75.7734375 77.203125L76.23046875 77.25390625L79.0234375 76.6953125Q79.68359375 76.6953125 80.318359375 77.203125Q80.953125 77.7109375 80.953125 78.1171875Q80.953125 78.5234375 79.150390625 81.7734375Q77.34765625 85.0234375 73.28515625 94.0625Q69.22265625 103.1015625 69.22265625 106.7578125Q69.22265625 107.671875 69.8828125 107.671875Q71.8125 107.671875 77.931640625 100.689453125Q84.05078125 93.70703125 87.91015625 87.30859375Q91.76953125 80.91015625 91.76953125 78.26953125ZM131.53125 78.015625Q131.53125 81.3671875 128.814453125 83.90625Q126.09765625 86.4453125 122.64453125 86.4453125Q121.52734375 86.4453125 121.171875 85.912109375Q120.81640625 85.37890625 120.81640625 84.515625Q120.81640625 83.65234375 121.01953125 82.83984375Q119.19140625 83.44921875 116.95703125 84.71875Q114.72265625 85.98828125 111.47265625 88.4765625Q108.22265625 90.96484375 108.22265625 92.18359375Q108.22265625 92.58984375 109.416015625 92.58984375Q110.609375 92.58984375 113.09765625 91.751953125Q115.5859375 90.9140625 116.576171875 90.9140625Q117.56640625 90.9140625 117.87109375 91.015625Q118.53125 91.37109375 119.29296875 92.564453125Q120.0546875 93.7578125 120.0546875 94.443359375Q120.0546875 95.12890625 118.734375 96.24609375Q117.4140625 97.36328125 115.73828125 97.947265625Q114.0625 98.53125 113.50390625 98.8359375Q102.7890625 104.828125 102.7890625 107.0625Q102.7890625 111.0234375 109.54296875 111.0234375Q113.859375 111.0234375 118.2265625 108.28125Q121.93359375 105.9453125 124.904296875 103.533203125Q127.875 101.12109375 128.662109375 100.5625Q129.44921875 100.00390625 129.85546875 100.00390625Q131.17578125 100.00390625 131.17578125 102.94921875Q131.17578125 105.89453125 130.8203125 106.833984375Q130.46484375 107.7734375 128.7890625 109.14453125Q117.921875 117.98046875 108.22265625 117.98046875Q103.04296875 117.98046875 99.9453125 116.55859375Q94.2578125 113.96875 94.2578125 108.63671875Q94.2578125 101.62890625 103.95703125 98.0234375Q102.02734375 97.16015625 101.46875 95.814453125Q100.91015625 94.46875 100.91015625 91.498046875Q100.91015625 88.52734375 103.677734375 85.201171875Q106.4453125 81.875 110.45703125 79.7421875Q119.39453125 74.91796875 126.40234375 74.91796875Q128.078125 74.91796875 129.8046875 75.73046875Q131.53125 76.54296875 131.53125 78.015625ZM164.5390625 78.015625Q164.5390625 81.3671875 161.822265625 83.90625Q159.10546875 86.4453125 155.65234375 86.4453125Q154.53515625 86.4453125 154.1796875 85.912109375Q153.82421875 85.37890625 153.82421875 84.515625Q153.82421875 83.65234375 154.02734375 82.83984375Q152.19921875 83.44921875 149.96484375 84.71875Q147.73046875 85.98828125 144.48046875 88.4765625Q141.23046875 90.96484375 141.23046875 92.18359375Q141.23046875 92.58984375 142.423828125 92.58984375Q143.6171875 92.58984375 146.10546875 91.751953125Q148.59375 90.9140625 149.583984375 90.9140625Q150.57421875 90.9140625 150.87890625 91.015625Q151.5390625 91.37109375 152.30078125 92.564453125Q153.0625 93.7578125 153.0625 94.443359375Q153.0625 95.12890625 151.7421875 96.24609375Q150.421875 97.36328125 148.74609375 97.947265625Q147.0703125 98.53125 146.51171875 98.8359375Q135.796875 104.828125 135.796875 107.0625Q135.796875 111.0234375 142.55078125 111.0234375Q146.8671875 111.0234375 151.234375 108.28125Q154.94140625 105.9453125 157.912109375 103.533203125Q160.8828125 101.12109375 161.669921875 100.5625Q162.45703125 100.00390625 162.86328125 100.00390625Q164.18359375 100.00390625 164.18359375 102.94921875Q164.18359375 105.89453125 163.828125 106.833984375Q163.47265625 107.7734375 161.796875 109.14453125Q150.9296875 117.98046875 141.23046875 117.98046875Q136.05078125 117.98046875 132.953125 116.55859375Q127.265625 113.96875 127.265625 108.63671875Q127.265625 101.62890625 136.96484375 98.0234375Q135.03515625 97.16015625 134.4765625 95.814453125Q133.91796875 94.46875 133.91796875 91.498046875Q133.91796875 88.52734375 136.685546875 85.201171875Q139.453125 81.875 143.46484375 79.7421875Q152.40234375 74.91796875 159.41015625 74.91796875Q161.0859375 74.91796875 162.8125 75.73046875Q164.5390625 76.54296875 164.5390625 78.015625ZM163.421875 117.21875 160.171875 116.5078125Q158.69921875 116.35546875 157.734375 114.62890625Q157.48046875 114.171875 157.404296875 114.0703125Q157.328125 113.96875 157.328125 113.81640625Q157.328125 113.6640625 157.4296875 113.384765625Q157.53125 113.10546875 157.734375 112.623046875Q157.9375 112.140625 158.08984375 111.6328125Q159.15625 108.02734375 175.9140625 77.7109375Q192.671875 47.39453125 193.458984375 46.455078125Q194.24609375 45.515625 194.626953125 45.083984375Q195.0078125 44.65234375 195.490234375 44.34765625Q195.97265625 44.04296875 196.201171875 43.94140625Q196.4296875 43.83984375 197.115234375 43.611328125Q197.80078125 43.3828125 198.537109375 43.12890625Q199.2734375 42.875 200.0859375 42.443359375Q200.8984375 42.01171875 201.203125 41.833984375Q201.5078125 41.65625 201.990234375 41.65625Q202.47265625 41.65625 202.904296875 42.11328125Q203.3359375 42.5703125 203.3359375 43.28125V43.63671875Q203.08203125 44.6015625 190.107421875 67.70703125Q177.1328125 90.8125 175.96484375 92.99609375Q179.92578125 91.421875 187.64453125 85.2265625Q195.36328125 79.03125 195.439453125 77.0Q195.515625 74.96875 196.8359375 74.0546875Q198.15625 73.140625 199.705078125 73.140625Q201.25390625 73.140625 202.345703125 74.181640625Q203.4375 75.22265625 203.38671875 77.583984375Q203.3359375 79.9453125 200.74609375 83.576171875Q198.15625 87.20703125 194.55078125 90.3046875Q186.78125 96.90625 181.6015625 99.0390625Q185.71484375 110.16015625 191.046875 110.16015625Q193.94140625 109.75390625 198.15625 105.4375Q199.73046875 103.86328125 201.203125 102.263671875Q202.67578125 100.6640625 203.005859375 100.359375Q203.3359375 100.0546875 203.9453125 100.0546875Q204.91015625 100.0546875 205.11328125 101.52734375Q205.31640625 103.0 205.31640625 104.57421875Q205.31640625 106.1484375 205.01171875 106.7578125Q203.5390625 109.6015625 198.5625 113.689453125Q193.5859375 117.77734375 189.1171875 117.77734375Q185.91796875 117.77734375 184.0390625 116.55859375Q182.16015625 115.33984375 181.09375 114.52734375Q180.02734375 113.71484375 178.91015625 112.318359375Q177.79296875 110.921875 177.056640625 110.0078125Q176.3203125 109.09375 175.380859375 107.46875Q174.44140625 105.84375 174.03515625 105.158203125Q173.62890625 104.47265625 172.841796875 102.923828125Q172.0546875 101.375 171.953125 101.22265625Q171.0390625 103.1015625 169.921875 105.28515625Q168.8046875 107.46875 167.890625 109.34765625Q166.9765625 111.2265625 166.21484375 112.775390625Q165.453125 114.32421875 164.970703125 115.33984375Q164.48828125 116.35546875 164.4375 116.40625Q164.08203125 117.21875 163.421875 117.21875ZM235.78515625 78.015625Q235.78515625 81.3671875 233.068359375 83.90625Q230.3515625 86.4453125 226.8984375 86.4453125Q225.78125 86.4453125 225.42578125 85.912109375Q225.0703125 85.37890625 225.0703125 84.515625Q225.0703125 83.65234375 225.2734375 82.83984375Q223.4453125 83.44921875 221.2109375 84.71875Q218.9765625 85.98828125 215.7265625 88.4765625Q212.4765625 90.96484375 212.4765625 92.18359375Q212.4765625 92.58984375 213.669921875 92.58984375Q214.86328125 92.58984375 217.3515625 91.751953125Q219.83984375 90.9140625 220.830078125 90.9140625Q221.8203125 90.9140625 222.125 91.015625Q222.78515625 91.37109375 223.546875 92.564453125Q224.30859375 93.7578125 224.30859375 94.443359375Q224.30859375 95.12890625 222.98828125 96.24609375Q221.66796875 97.36328125 219.9921875 97.947265625Q218.31640625 98.53125 217.7578125 98.8359375Q207.04296875 104.828125 207.04296875 107.0625Q207.04296875 111.0234375 213.796875 111.0234375Q218.11328125 111.0234375 222.48046875 108.28125Q226.1875 105.9453125 229.158203125 103.533203125Q232.12890625 101.12109375 232.916015625 100.5625Q233.703125 100.00390625 234.109375 100.00390625Q235.4296875 100.00390625 235.4296875 102.94921875Q235.4296875 105.89453125 235.07421875 106.833984375Q234.71875 107.7734375 233.04296875 109.14453125Q222.17578125 117.98046875 212.4765625 117.98046875Q207.296875 117.98046875 204.19921875 116.55859375Q198.51171875 113.96875 198.51171875 108.63671875Q198.51171875 101.62890625 208.2109375 98.0234375Q206.28125 97.16015625 205.72265625 95.814453125Q205.1640625 94.46875 205.1640625 91.498046875Q205.1640625 88.52734375 207.931640625 85.201171875Q210.69921875 81.875 214.7109375 79.7421875Q223.6484375 74.91796875 230.65625 74.91796875Q232.33203125 74.91796875 234.05859375 75.73046875Q235.78515625 76.54296875 235.78515625 78.015625ZM260.36328125 108.1796875Q260.36328125 110.4140625 263.41015625 110.4140625Q265.03515625 110.4140625 267.498046875 108.7890625Q269.9609375 107.1640625 271.94140625 105.234375Q277.22265625 100.00390625 277.93359375 100.00390625Q279.25390625 100.00390625 279.25390625 103.8125Q279.25390625 107.62109375 276.8671875 109.04296875Q269.60546875 115.59375 265.64453125 117.015625Q263.41015625 117.77734375 260.71875 117.7265625Q258.02734375 117.67578125 255.38671875 115.390625Q252.74609375 113.10546875 252.74609375 109.830078125Q252.74609375 106.5546875 254.47265625 102.390625Q256.19921875 98.2265625 258.001953125 95.255859375Q259.8046875 92.28515625 262.4453125 88.349609375Q265.0859375 84.4140625 265.23828125 83.44921875L265.13671875 83.34765625Q263.4609375 83.5 256.833984375 89.94921875Q250.20703125 96.3984375 245.890625 101.171875Q241.57421875 105.9453125 235.58203125 113.91796875Q233.90625 116.1015625 232.83984375 116.1015625Q231.7734375 116.1015625 229.970703125 115.416015625Q228.16796875 114.73046875 227.76171875 114.42578125Q227.35546875 114.12109375 227.35546875 113.51171875Q227.35546875 112.90234375 227.7109375 112.013671875Q228.06640625 111.125 228.396484375 110.541015625Q228.7265625 109.95703125 229.48828125 108.73828125Q230.25 107.51953125 232.509765625 103.583984375Q234.76953125 99.6484375 239.44140625 91.828125Q244.11328125 84.0078125 245.02734375 82.3828125Q246.95703125 79.03125 248.17578125 77.5078125Q250.4609375 74.61328125 255.89453125 74.61328125Q257.11328125 74.61328125 257.11328125 76.13671875Q257.11328125 78.5234375 252.6953125 85.125L250.5625 88.32421875Q259.34765625 78.57421875 265.390625 75.984375Q268.3359375 74.71484375 270.697265625 74.71484375Q273.05859375 74.71484375 274.455078125 75.984375Q275.8515625 77.25390625 275.8515625 78.802734375Q275.8515625 80.3515625 274.78515625 82.509765625Q273.71875 84.66796875 272.626953125 86.369140625Q271.53515625 88.0703125 269.7578125 90.66015625Q267.98046875 93.25 267.828125 93.478515625Q267.67578125 93.70703125 267.041015625 94.697265625Q266.40625 95.6875 266.1015625 96.14453125Q265.796875 96.6015625 265.0859375 97.744140625Q264.375 98.88671875 263.943359375 99.6484375Q263.51171875 100.41015625 262.876953125 101.52734375Q262.2421875 102.64453125 261.861328125 103.45703125Q261.48046875 104.26953125 261.07421875 105.234375Q260.36328125 107.01171875 260.36328125 108.1796875ZM329.2734375 60.4453125Q317.74609375 79.18359375 311.1953125 92.1328125Q304.64453125 105.08203125 304.64453125 107.7734375V108.1796875Q304.64453125 110.26171875 306.16796875 110.26171875Q307.69140625 110.26171875 309.849609375 108.83984375Q312.0078125 107.41796875 313.6328125 105.79296875Q315.2578125 104.16796875 316.908203125 102.416015625Q318.55859375 100.6640625 318.9140625 100.359375Q319.26953125 100.0546875 319.828125 100.0546875Q320.69140625 100.0546875 320.9453125 101.146484375Q321.19921875 102.23828125 321.19921875 104.193359375Q321.19921875 106.1484375 320.89453125 106.7578125Q319.421875 109.6015625 314.419921875 113.689453125Q309.41796875 117.77734375 304.94921875 117.77734375Q297.33203125 117.77734375 297.33203125 111.328125Q297.33203125 107.31640625 300.37890625 100.81640625Q296.265625 106.1484375 292.0 109.90625Q284.078125 116.8125 278.23828125 116.8125Q274.98828125 116.8125 273.439453125 114.52734375Q271.890625 112.2421875 271.890625 107.951171875Q271.890625 103.66015625 275.2421875 97.66796875Q278.59375 91.67578125 283.595703125 86.876953125Q288.59765625 82.078125 294.69140625 78.853515625Q300.78515625 75.62890625 305.9140625 75.62890625Q307.5390625 75.62890625 309.72265625 77.609375Q311.1953125 75.2734375 315.15625 68.265625Q327.59765625 47.29296875 331.609375 42.671875Q333.7421875 39.87890625 338.26171875 39.87890625Q339.2265625 39.87890625 339.78515625 40.48828125Q340.34375 41.09765625 340.34375 41.732421875Q340.34375 42.3671875 339.353515625 44.068359375Q338.36328125 45.76953125 334.80859375 51.482421875Q331.25390625 57.1953125 329.2734375 60.4453125ZM306.625 82.3828125Q299.3125 84.0078125 293.015625 89.1875Q286.71875 94.3671875 283.5703125 100.029296875Q280.421875 105.69140625 280.421875 107.3671875Q280.421875 109.04296875 281.1328125 109.04296875Q284.1796875 109.04296875 296.21484375 95.43359375Q302.20703125 88.73046875 306.625 82.3828125Z" fill="#7a1f3d"/><path d="M54.74499999999999 149.46H57.80499999999999V160.0H59.249999999999986V149.46H62.30999999999999V148.1H54.74499999999999ZM82.82999999999998 148.1V152.86H76.285V148.1H74.83999999999999V160.0H76.285V154.22H82.82999999999998V160.0H84.27499999999999V148.1ZM97.99499999999999 148.1V160.0H104.79499999999999V158.64H99.44V154.22H104.45499999999998V152.86H99.44V149.46H104.79499999999999V148.1ZM135.295 154.05Q135.295 152.656 135.91549999999998 151.6105Q136.53599999999997 150.565 137.539 149.97Q138.54199999999997 149.375 139.71499999999997 149.375Q140.56499999999997 149.375 141.27049999999997 149.596Q141.97599999999997 149.817 142.55399999999997 150.2165Q143.13199999999998 150.61599999999999 143.54 151.143V149.239Q142.79199999999997 148.576 141.90799999999996 148.253Q141.02399999999997 147.93 139.71499999999997 147.93Q138.474 147.93 137.3945 148.38049999999998Q136.31499999999997 148.831 135.49899999999997 149.6555Q134.683 150.48 134.224 151.60199999999998Q133.765 152.724 133.765 154.05Q133.765 155.376 134.224 156.498Q134.683 157.62 135.49899999999997 158.4445Q136.31499999999997 159.269 137.3945 159.71949999999998Q138.474 160.17 139.71499999999997 160.17Q141.02399999999997 160.17 141.90799999999996 159.84699999999998Q142.79199999999997 159.524 143.54 158.861V156.957Q143.13199999999998 157.484 142.55399999999997 157.8835Q141.97599999999997 158.283 141.27049999999997 158.504Q140.56499999999997 158.725 139.71499999999997 158.725Q138.54199999999997 158.725 137.539 158.13Q136.53599999999997 157.535 135.91549999999998 156.481Q135.295 155.427 135.295 154.05ZM163.737 156.43 165.25 160.0H166.86499999999998L161.34 147.505L155.815 160.0H157.42999999999998L158.94299999999998 156.43ZM161.34 150.786 163.159 155.07H159.521ZM179.31 148.1V160.0H185.42999999999998V158.64H180.755V148.1ZM197.96 148.1V160.0H204.76V158.64H199.405V154.22H204.42V152.86H199.405V149.46H204.76V148.1ZM227.32 148.1V156.957L218.31 147.505V160.0H219.755V151.143L228.765 160.595V148.1ZM242.485 148.1V160.0H246.055Q247.789 160.0 249.132 159.252Q250.475 158.504 251.24 157.1695Q252.005 155.835 252.005 154.05Q252.005 152.265 251.24 150.9305Q250.475 149.596 249.132 148.848Q247.789 148.1 246.055 148.1ZM243.93 158.555V149.545H246.055Q247.058 149.545 247.891 149.8595Q248.724 150.174 249.319 150.7605Q249.914 151.347 250.237 152.18Q250.56 153.013 250.56 154.05Q250.56 155.087 250.237 155.92Q249.914 156.753 249.319 157.3395Q248.724 157.926 247.891 158.2405Q247.058 158.555 246.055 158.555ZM271.692 156.43 273.205 160.0H274.82L269.295 147.505L263.77 160.0H265.385L266.898 156.43ZM269.295 150.786 271.114 155.07H267.476ZM287.265 148.1V160.0H288.71V155.24H290.155L293.46999999999997 160.0H295.255L291.702 155.10399999999998Q292.16099999999994 155.002 292.56899999999996 154.798Q293.46999999999997 154.373 294.0055 153.5655Q294.541 152.758 294.541 151.67Q294.541 150.565 294.0055 149.766Q293.46999999999997 148.96699999999998 292.56049999999993 148.5335Q291.65099999999995 148.1 290.49499999999995 148.1ZM288.71 153.965V149.375H290.49499999999995Q291.26 149.375 291.8465 149.647Q292.433 149.919 292.7645 150.429Q293.09599999999995 150.939 293.09599999999995 151.67000000000002Q293.09599999999995 152.401 292.7645 152.911Q292.433 153.421 291.8465 153.69299999999998Q291.26 153.965 290.49499999999995 153.965Z" fill="#14161c"/></svg>